# xmcd
# 
# Track frame offsets:
#     150
#     20265
#     43840
#     61582
#     80465
#     99517
#     116135
#     133110
#     146797
#     168292
#     190487
#     207765
# 
# Disc length: 3086
# 
# Revision: 3
# Processed by: cddbd v1.5.2PL0 Copyright (c) Steve Scherf et al.
# Submitted via: fre:ac v1.0.17
# 
DISCID=a60c0c0c
DTITLE=한영애 - BEST
DYEAR=1999
DGENRE=Blues
TTITLE0=누구없소?
TTITLE1=루씰
TTITLE2=건널 수 없는 강
TTITLE3=여울목
TTITLE4=호호호
TTITLE5=여인 #3
TTITLE6=코뿔소
TTITLE7=달
TTITLE8=비애
TTITLE9=갈증
TTITLE10=환영열차
TTITLE11=바라본다
EXTD=
EXTT0=
EXTT1=
EXTT2=
EXTT3=
EXTT4=
EXTT5=
EXTT6=
EXTT7=
EXTT8=
EXTT9=
EXTT10=
EXTT11=
PLAYORDER=
